<?xml version="1.0" encoding="utf-8"?>
<!-- Generator: Adobe Illustrator 29.4.0, SVG Export Plug-In . SVG Version: 9.03 Build 0)  -->
<svg version="1.1" baseProfile="basic" id="Layer_1"
	 xmlns="http://www.w3.org/2000/svg" xmlns:xlink="http://www.w3.org/1999/xlink" x="0px" y="0px" viewBox="0 0 1200 430"
	 xml:space="preserve">
<style type="text/css">
	.st0{fill:#FFFFFF;}
</style>
<g>
	<g>
		<g>
			<path class="st0" d="M68.8,18.1C97,18.1,124,32.5,129,60.9c0.7,4.2-2.5,8-6.7,8H97.9c-3.1,0-5.8-2.1-6.6-5.1
				C89,54.6,79.7,50.4,71.1,50.4c-9,0-17.3,4.5-17.3,12.4c0,20.7,78.5,7.3,78.5,58.8c0,24-24,49.6-60.7,49.6
				c-27.4,0-54.6-14.3-59.2-44.9c-0.6-4,2.5-7.6,6.5-7.7l24.7-0.8c3.3-0.1,6.1,2.2,6.7,5.5c2.2,10.5,12.6,15.5,22.7,15.5
				c9.8,0,20.1-4.9,20.1-16.3c0-20.5-80.4-4.1-80.4-58.2C12.7,41.2,32,18.1,68.8,18.1z"/>
			<path class="st0" d="M214.6,22.3l39,143.6c0.5,2-0.9,3.9-3,3.9h-31.3c-1.4,0-2.6-0.9-3-2.3l-3.3-12.3c-0.4-1.3-1.6-2.3-3-2.3
				h-32.3c-1.4,0-2.6,0.9-3,2.3l-3.3,12.3c-0.4,1.3-1.6,2.3-3,2.3h-31.3c-2,0-3.5-1.9-3-3.9l39-143.6c0.4-1.3,1.6-2.3,3-2.3h35.3
				C213.1,20,214.3,20.9,214.6,22.3z M202.5,116.5L194.1,85l-8.6,31.4H202.5z"/>
			<path class="st0" d="M303.9,108.2v57.9c0,2-1.6,3.7-3.7,3.7H269c-2,0-3.7-1.6-3.7-3.7V23.7c0-2,1.6-3.7,3.7-3.7h47
				c1.6,0,3,1,3.5,2.5l25.1,76.1c1.1,3.4,5.9,3.3,7-0.1l23-76c0.5-1.5,1.9-2.6,3.5-2.6h48c2,0,3.7,1.6,3.7,3.7v142.4
				c0,2-1.6,3.7-3.7,3.7h-31.2c-2,0-3.7-1.6-3.7-3.7v-54c0-4.3-6.1-5.1-7.2-1L368.8,167c-0.4,1.6-1.9,2.7-3.5,2.7h-34.4
				c-1.7,0-3.1-1.1-3.5-2.7L311,107.2C309.9,103.1,303.9,103.9,303.9,108.2z"/>
			<path class="st0" d="M521.8,23.1l38.4,141.4c0.7,2.6-1.3,5.2-4,5.2h-29c-1.9,0-3.5-1.3-4-3.1l-2.9-10.7c-0.5-1.8-2.1-3.1-4-3.1
				h-30.6c-1.9,0-3.5,1.3-4,3.1l-2.9,10.7c-0.5,1.8-2.1,3.1-4,3.1h-29c-2.7,0-4.7-2.6-4-5.2l38.4-141.4c0.5-1.8,2.1-3.1,4-3.1h33.7
				C519.7,20,521.3,21.3,521.8,23.1z M509.4,116.5L501.1,85l-8.6,31.4H509.4z"/>
			<path class="st0" d="M575.3,20h38.6c1.1,0,2.1,0.6,2.7,1.6L649,82.1c1.5,2.8,5.7,1.7,5.7-1.4V23c0-1.7,1.4-3,3-3h32.4
				c1.7,0,3,1.4,3,3v143.7c0,1.7-1.4,3-3,3h-33.6c-1.1,0-2.1-0.6-2.7-1.6l-37.3-69.6c-1.5-2.8-5.7-1.7-5.7,1.4v66.8c0,1.7-1.4,3-3,3
				h-32.4c-1.7,0-3-1.4-3-3V23C572.3,21.4,573.7,20,575.3,20z"/>
			<path class="st0" d="M840.4,56.4h-63.7c-1.7,0-3,1.4-3,3v107.3c0,1.7-1.4,3-3,3h-32.4c-1.7,0-3-1.4-3-3V59.4c0-1.7-1.4-3-3-3H708
				c-1.7,0-3-1.4-3-3V23c0-1.7,1.4-3,3-3h132.4c1.7,0,3,1.4,3,3v30.3C843.4,55,842,56.4,840.4,56.4z M807.9,69.9h32.4
				c1.7,0,3,1.4,3,3V95c0,1.7,1.4,3,3,3h27.1c1.7,0,3-1.4,3-3V23c0-1.7,1.4-3,3-3H912c1.7,0,3,1.4,3,3v143.7c0,1.7-1.4,3-3,3h-32.4
				c-1.7,0-3-1.4-3-3v-29.2c0-1.7-1.4-3-3-3h-27.1c-1.7,0-3,1.4-3,3v29.2c0,1.7-1.4,3-3,3h-32.4c-1.7,0-3-1.4-3-3V72.9
				C804.9,71.2,806.3,69.9,807.9,69.9z"/>
			<path class="st0" d="M1007.4,23.8l37.8,139.4c0.9,3.3-1.6,6.5-5,6.5h-26.9c-2.3,0-4.4-1.6-5-3.8l-2.5-9.2c-0.6-2.3-2.7-3.8-5-3.8
				h-29.1c-2.3,0-4.4,1.6-5,3.8l-2.5,9.2c-0.6,2.3-2.7,3.8-5,3.8h-26.9c-3.4,0-5.9-3.2-5-6.5l37.8-139.4c0.6-2.3,2.7-3.8,5-3.8h32.1
				C1004.8,20,1006.8,21.6,1007.4,23.8z M994.6,115.4l-7.2-27.3c-0.2-0.8-1.4-0.8-1.6,0l-7.4,27.3c-0.1,0.5,0.3,1.1,0.8,1.1h14.7
				C994.3,116.5,994.7,115.9,994.6,115.4z"/>
			<path class="st0" d="M1034.8,9.3h28.7c0.9,0,1.7,0.8,1.7,1.7v26.1c0,11.5-2.6,28.5-25.4,29.3c-1,0-1.7-0.8-1.7-1.7V53.2
				c0-0.9,0.7-1.7,1.6-1.7c7.6-0.3,8.7-5.7,8.8-12.6c0-1-0.8-1.7-1.7-1.7h-12c-0.9,0-1.7-0.8-1.7-1.7V11
				C1033.1,10.1,1033.9,9.3,1034.8,9.3z"/>
			<path class="st0" d="M1130.9,18.1c29.2,0,57,15.4,60.6,45.7c0.3,2.8-1.8,5.2-4.6,5.2h-28.7c-2.2,0-4.1-1.6-4.5-3.8
				c-1.8-10.2-11.5-14.8-20.5-14.8c-9,0-17.3,4.5-17.3,12.4c0,20.7,78.5,7.3,78.5,58.8c0,24-24,49.6-60.7,49.6
				c-28.1,0-56.1-15.2-59.6-47.6c-0.3-2.6,1.8-4.9,4.4-5l29-1c2.4-0.1,4.4,1.7,4.7,4.1c1.6,11.4,12.4,16.9,23,16.9
				c9.8,0,20.1-4.9,20.1-16.3c0-20.5-80.4-4.1-80.4-58.2C1074.9,41.2,1094.1,18.1,1130.9,18.1z"/>
		</g>
		<g>
			<path class="st0" d="M308.2,210h40.7c3.3,0,6,2.7,6,6v65.5c0,3.3,2.7,6,6,6h48c3.3,0,6-2.7,6-6V216c0-3.3,2.7-6,6-6h40.7
				c3.3,0,6,2.7,6,6v192.6c0,3.3-2.7,6-6,6h-40.7c-3.3,0-6-2.7-6-6v-65.5c0-3.3-2.7-6-6-6h-48c-3.3,0-6,2.7-6,6v65.5
				c0,3.3-2.7,6-6,6h-40.7c-3.3,0-6-2.7-6-6V216C302.3,212.7,304.9,210,308.2,210z"/>
			<path class="st0" d="M580.2,207.1c123.1,0,123.1,211.6,0,211.6S457.2,207.1,580.2,207.1z M580.2,262.6
				c-49.1,0-49.1,100.5,0,100.5C629.3,363.2,629.3,262.6,580.2,262.6z"/>
			<path class="st0" d="M691.9,210h43.3c2.6,0,4.7,2.1,4.7,4.7v114.9c0,24.8,14.9,37.1,29.8,37.1c14.9,0,30.1-12.6,30.1-37.1V214.7
				c0-2.6,2.1-4.7,4.7-4.7h43.3c2.6,0,4.7,2.1,4.7,4.7v112.2c0,59.9-40.9,89.7-81.8,89.7c-41.5,0-83.3-30.4-83.3-89.7V214.7
				C687.2,212.1,689.3,210,691.9,210z"/>
			<path class="st0" d="M945,207.4c37.3,0,72.9,18.3,81.4,54.6c1.8,7.6-4,15-11.9,15h-27.9c-5.2,0-9.6-3.5-11.3-8.5
				c-3.8-11.6-15.9-16.9-27.1-16.9c-12.3,0-23.7,6.1-23.7,17c0,28.4,107.3,9.9,107.3,80.4c0,32.7-32.7,67.8-83,67.8
				c-36.3,0-72.3-18.4-80.3-57.6c-1.5-7.3,4.1-14.2,11.6-14.4l28-0.9c5.6-0.2,10.6,3.5,12.1,9c3.7,13.2,17.4,19.6,30.6,19.6
				c13.4,0,27.5-6.7,27.5-22.2c0-28.1-109.9-5.6-109.9-79.5C868.4,238.9,894.7,207.4,945,207.4z"/>
			<path class="st0" d="M1057.8,210H1183c3,0,5.5,2.5,5.5,5.5v38.7c0,3-2.5,5.5-5.5,5.5h-72.6c-3,0-5.5,2.5-5.5,5.5V282
				c0,3,2.5,5.5,5.5,5.5h42.5c3,0,5.5,2.5,5.5,5.5v38.7c0,3-2.5,5.5-5.5,5.5h-42.5c-3,0-5.5,2.5-5.5,5.5v16.8c0,3,2.5,5.5,5.5,5.5
				h72.6c3,0,5.5,2.5,5.5,5.5v38.7c0,3-2.5,5.5-5.5,5.5h-125.2c-3,0-5.5-2.5-5.5-5.5V215.5C1052.3,212.5,1054.7,210,1057.8,210z"/>
		</g>
	</g>
	<path class="st0" d="M169.7,280.1c-1.9-5.1-3.7-8.2-7.2-12.4c-6.7-8.1-13-12.1-23.6-11.7c-8.8,0.3-19.3,7.1-23.8,14.6
		c-5.7,9.6-10.3,23.6-11.1,34.6c-1.5,20.6-2,59.2-2.1,79.9c0,5,0,9.9-0.2,14.9c-0.4,6.9,0.4,10.2-5.4,14.9
		c-4.3,3.4-8.7,2.6-13.7,2.9c-4.6,0.3-38.5,0.4-42.6,0.2c-4.3-0.2-9.1,0.6-9.3-7.4c-0.1-2.6,1-8.8,1.4-11.8c0.4-3,1.5-11.7,1.6-13.7
		c0.3-3.7,2.3-17.8,1.7-39.9c-0.3-10.1-0.2-20.4-0.7-30.5c-0.1-2.5-0.4-5.7-0.7-8.2c-0.1-0.4-0.2-0.9-0.2-1.3c-1.9-0.8-3.5,0-5.1,1
		c-2.9,1.8-5.1,4.7-8.1,6.5c-2.3,1.4-6.5,3.6-8.9,1.5c-0.8-0.7-4.6-5.1-5.1-6c-1.6-2.7-0.2-6.1,1.6-8.3c0.8-0.9,2-1.7,2.8-2.6
		c5.4-5.3,10.9-10.8,16.8-15.6c6.9-5.6,13.5-11.3,20.2-17.1c1.5-1.3,3.1-2.4,4.6-3.7c0-1.5,0.3-3.1,0.4-4.6c0.4-10-0.7-20.6,0-30.5
		c0.2-3.6,2.1-7.6,5.4-9.3c1-0.5,1.9-0.6,2.8-1c0,0,3.7-0.8,5.3-1c1.6-0.2,2.9-0.3,3.9-0.2c4,0.3,9.3,0.8,12.7,2.6
		c3.1,1.7,2.1,5.7,2.3,8.6c0.2,2.5,0.8,5.1,0.9,7.7c2.9-2.8,6.1-5.1,9.2-7.7c4-3.3,8-6.8,12.2-10c6.5-4.9,13.6-10.6,21.4-13.3
		c1.9-0.7,2.1-0.2,3.7-0.3c1.3-0.1,2-0.6,3.8-0.5c2.7,0.3,4.6,0.4,7.2,1.5c10.4,4.3,24.1,13.8,33.4,20.5
		c18.9,13.4,36.6,30.7,53.5,46.6c12.4,11.7,27.5,24.5,38,37.8c1.9,2.5,2.3,2.6,1,5.7c-1,2.3-2.9,4.3-5,5.6c-1.9,1.1-3.1,1-5.1,0.5
		c-5.1-1.3-8.6-7.7-13.9-8.3c-2.8-0.3-3.6,2.9-3.9,5.1c-2,15.7-0.8,32,1.2,47.7c0.4,3.3,1,7.1,1.7,10.3c0.4,1.6,1.1,5.9,1.6,9.4
		c0.5,3.9,1.3,7.6,3.1,15.4c1.8,7.8,3.5,16.9-1.2,17c-4.6,0.2-6.6,0.2-11,0.2c-4.4,0-39.6-0.4-46.8-0.1c-1.8,0.1-4.7,0.4-6.4,0.2
		c-3.1-0.2-3.5-2.8-3.6-5.3c-0.5-6.4-0.5-13.2-0.7-19.6c-0.2-5.2-0.1-10.4-0.2-15.6c-0.6-18.8-2.7-55-4.4-73.8
		c-0.4-3.9-0.6-5.7-1.2-9.6C172.8,289.6,171.4,284.9,169.7,280.1z"/>
	<path class="st0" d="M168.8,301.4c1.6,19.3,1.7,55,2.3,74.5c0.3,8.2,0.6,16.8,0.4,24.7c-0.1,3.9,0.1,13.9-3.8,16
		c-3.7,2-13.5,1-17.6,0.9c-5.9-0.2-11.6-0.4-17.5-0.2c-3.6,0.1-7.3,0.4-10.9,0.5c-3.1,0.1-11,0.3-11.9-3.7c-1.1-5.2-1.3-11.1-1.4-17
		c-0.1-23.1,0.9-63.2,1.6-86.3c0.5-16,3.6-34.6,17.9-44.2c5.6-3.8,17.1-4,22-1c5.8,3.5,11.1,7.8,14.9,17
		C166.4,285.7,168.5,296.7,168.8,301.4z M134.4,273.4c-1.4,0.1-5.1,2.5-6.3,3.5c-4.3,3.7-8.3,12.9-7.7,18.5c0.2,1.5,0.8,2.9,2.6,2.9
		c2,0,4-0.4,6-0.6c2.1-0.1,6.9,0.7,7.8-1.9l0.7-19.3C137.2,274.9,136.3,273.2,134.4,273.4z M145,273.7c-1.3,0-2.3,0.5-2.4,2
		c0.2,5.3-0.6,10.7-0.3,16c0.1,0.9,0.4,3.6,0.9,4.3c1.5,2.2,8.1,0.9,10.4,0.7c2.2-0.2,7.3,0.5,7.2-3.1c0-2-1.5-6.8-2.5-8.6
		C156.5,281.7,148.7,273.6,145,273.7z M160.7,303.2c-1.8-1.6-9.2-0.3-11.7-0.1c-2.8,0.3-5-0.7-6,2.7c-0.8,3.1-0.5,11.4-0.1,14.7
		c0.3,2.4,1.7,1.6,3.4,1.8c2.6,0.2,4,0,6.5,0c1.9,0,7.5,0.5,8.7-0.8c0.7-0.8,0.3-2.6,0.4-3.6c0.2-3.4,1.2-9.2,0.1-12.3
		C161.8,305,161,303.5,160.7,303.2z M130.7,302.9c-0.8,0.1-1.7,0.4-2.5,0.5c-3,0.2-7-0.7-8.6,2.5c-1.3,2.7-0.8,5.4-0.8,8.1
		c0,2-0.4,6.2,0.5,7.9c0.4,0.8,1,0.8,1.8,0.9c2.7,0.3,12.7,0.3,15-0.5c0.3-0.1,0.6-0.2,0.8-0.5c0.7-1.1,0.6-6.8,0.6-8.4
		c-0.1-2.2-0.4-7.1-1.2-9C135.4,302.2,132.6,302.7,130.7,302.9z M120.6,330.9c-4.5,0.8-2.8,7.9,1.4,8c2.9,0.1,3.9-2.3,3.7-4.9
		C125.4,331.3,123.1,330.5,120.6,330.9z"/>
</g>
</svg>
