<?xml version="1.0" encoding="UTF-8" standalone="no"?><!DOCTYPE svg PUBLIC "-//W3C//DTD SVG 1.1//EN" "http://www.w3.org/Graphics/SVG/1.1/DTD/svg11.dtd"><svg width="100%" height="100%" viewBox="0 0 1200 430" version="1.1" xmlns="http://www.w3.org/2000/svg" xmlns:xlink="http://www.w3.org/1999/xlink" xml:space="preserve" xmlns:serif="http://www.serif.com/" style="fill-rule:evenodd;clip-rule:evenodd;stroke-linejoin:round;stroke-miterlimit:2;"><g id="Layer-1" serif:id="Layer 1"><path d="M68.782,18.087c28.251,-0 55.243,14.395 60.179,42.859c0.727,4.193 -2.464,8.049 -6.72,8.049l-24.335,-0c-3.113,-0 -5.825,-2.116 -6.593,-5.132c-2.356,-9.254 -11.581,-13.478 -20.179,-13.478c-8.984,-0 -17.326,4.492 -17.326,12.407c-0,20.747 78.502,7.272 78.502,58.822c-0,23.955 -23.957,49.623 -60.748,49.623c-27.372,-0 -54.561,-14.347 -59.222,-44.918c-0.608,-3.991 2.501,-7.594 6.535,-7.729l24.731,-0.828c3.298,-0.111 6.059,2.245 6.746,5.472c2.227,10.462 12.625,15.49 22.708,15.49c9.839,-0 20.106,-4.919 20.106,-16.256c-0,-20.534 -80.426,-4.064 -80.426,-58.179c-0,-23.101 19.252,-46.202 56.042,-46.202" style="fill:#0b64a1;fill-rule:nonzero;"/><path d="M202.471,116.479l-8.34,-31.443l-8.558,31.443l16.898,0Zm12.167,-94.195l38.971,143.571c0.531,1.957 -0.942,3.884 -2.97,3.884l-31.256,0c-1.395,0 -2.616,-0.939 -2.974,-2.287l-3.275,-12.323c-0.359,-1.349 -1.58,-2.288 -2.975,-2.288l-32.272,0c-1.395,0 -2.616,0.939 -2.975,2.288l-3.275,12.323c-0.358,1.348 -1.579,2.287 -2.974,2.287l-31.256,0c-2.027,0 -3.501,-1.927 -2.97,-3.884l38.969,-143.571c0.364,-1.341 1.581,-2.272 2.971,-2.272l35.291,0c1.389,0 2.606,0.931 2.97,2.272" style="fill:#0b64a1;fill-rule:nonzero;"/><path d="M303.862,108.174l-0,57.908c-0,2.019 -1.637,3.657 -3.657,3.657l-31.187,0c-2.02,0 -3.657,-1.638 -3.657,-3.657l-0,-142.413c-0,-2.02 1.637,-3.657 3.657,-3.657l46.957,0c1.579,0 2.98,1.013 3.474,2.513l25.071,76.123c1.118,3.393 5.937,3.335 6.974,-0.084l23.023,-75.956c0.467,-1.542 1.889,-2.596 3.5,-2.596l47.959,0c2.02,0 3.657,1.637 3.657,3.657l-0,142.413c-0,2.019 -1.637,3.657 -3.657,3.657l-31.186,0c-2.02,0 -3.658,-1.638 -3.658,-3.657l-0,-54.031c-0,-4.27 -6.069,-5.079 -7.187,-0.958l-15.181,55.946c-0.433,1.594 -1.879,2.7 -3.53,2.7l-34.405,0c-1.651,0 -3.097,-1.106 -3.53,-2.699l-16.25,-59.825c-1.119,-4.12 -7.187,-3.31 -7.187,0.959" style="fill:#0b64a1;fill-rule:nonzero;"/><path d="M509.424,116.479l-8.342,-31.443l-8.556,31.443l16.898,0Zm12.382,-93.405l38.387,141.429c0.716,2.638 -1.27,5.236 -4.003,5.236l-29.03,0c-1.881,0 -3.527,-1.265 -4.01,-3.083l-2.853,-10.732c-0.484,-1.818 -2.129,-3.083 -4.01,-3.083l-30.624,0c-1.88,0 -3.526,1.265 -4.009,3.083l-2.854,10.732c-0.483,1.818 -2.128,3.083 -4.009,3.083l-29.03,0c-2.734,0 -4.72,-2.598 -4.004,-5.236l38.388,-141.429c0.49,-1.807 2.131,-3.062 4.004,-3.062l33.653,0c1.872,0 3.513,1.255 4.004,3.062" style="fill:#0b64a1;fill-rule:nonzero;"/><path d="M575.349,20.012l38.567,0c1.12,0 2.149,0.616 2.677,1.603l32.358,60.449c1.49,2.784 5.713,1.725 5.713,-1.433l-0,-57.583c-0,-1.677 1.359,-3.036 3.036,-3.036l32.429,0c1.677,0 3.036,1.359 3.036,3.036l-0,143.655c-0,1.676 -1.359,3.036 -3.036,3.036l-33.646,0c-1.12,0 -2.149,-0.616 -2.677,-1.604l-37.279,-69.646c-1.49,-2.784 -5.713,-1.725 -5.713,1.433l-0,66.781c-0,1.676 -1.359,3.036 -3.036,3.036l-32.429,0c-1.677,0 -3.036,-1.36 -3.036,-3.036l-0,-143.655c-0,-1.677 1.359,-3.036 3.036,-3.036" style="fill:#0b64a1;fill-rule:nonzero;"/><path d="M807.94,69.89l32.429,0c1.677,0 3.036,1.359 3.036,3.036l-0,22.121c-0,1.677 1.359,3.036 3.036,3.036l27.082,0c1.677,0 3.036,-1.359 3.036,-3.036l-0,-71.999c-0,-1.677 1.359,-3.036 3.036,-3.036l32.429,0c1.677,0 3.036,1.359 3.036,3.036l-0,143.654c-0,1.677 -1.359,3.037 -3.036,3.037l-32.429,0c-1.677,0 -3.036,-1.36 -3.036,-3.037l-0,-29.22c-0,-1.677 -1.359,-3.036 -3.036,-3.036l-27.082,0c-1.677,0 -3.036,1.359 -3.036,3.036l-0,29.22c-0,1.677 -1.359,3.037 -3.036,3.037l-32.429,0c-1.677,0 -3.036,-1.36 -3.036,-3.037l-0,-93.776c-0,-1.677 1.359,-3.036 3.036,-3.036m32.429,-13.516l-63.739,0c-1.677,0 -3.036,1.359 -3.036,3.036l-0,107.292c-0,1.677 -1.359,3.037 -3.036,3.037l-32.431,0c-1.677,0 -3.036,-1.36 -3.036,-3.037l-0,-107.292c-0,-1.677 -1.359,-3.036 -3.036,-3.036l-24.087,0c-1.676,0 -3.036,-1.359 -3.036,-3.036l-0,-30.29c-0,-1.677 1.36,-3.036 3.036,-3.036l132.401,0c1.677,0 3.036,1.359 3.036,3.036l-0,30.29c-0,1.677 -1.359,3.036 -3.036,3.036" style="fill:#0b64a1;fill-rule:nonzero;"/><path d="M994.567,115.407l-7.244,-27.301c-0.223,-0.844 -1.419,-0.847 -1.649,-0.006l-7.428,27.302c-0.147,0.543 0.262,1.077 0.824,1.077l14.672,-0c0.56,-0 0.969,-0.53 0.825,-1.072m12.87,-91.581l37.835,139.393c0.892,3.285 -1.582,6.52 -4.986,6.52l-26.916,-0c-2.343,-0 -4.392,-1.575 -4.994,-3.839l-2.451,-9.219c-0.602,-2.264 -2.651,-3.839 -4.993,-3.839l-29.059,-0c-2.342,-0 -4.391,1.575 -4.993,3.839l-2.451,9.219c-0.602,2.264 -2.651,3.839 -4.993,3.839l-26.917,-0c-3.404,-0 -5.878,-3.235 -4.986,-6.52l37.835,-139.393c0.611,-2.251 2.654,-3.814 4.986,-3.814l32.097,-0c2.332,-0 4.375,1.563 4.986,3.814" style="fill:#0b64a1;fill-rule:nonzero;"/><path d="M1034.84,9.316l28.679,0c0.94,0 1.703,0.762 1.703,1.703l-0,26.104c-0,11.477 -2.647,28.454 -25.421,29.273c-0.954,0.035 -1.743,-0.753 -1.743,-1.707l-0,-11.539c-0,-0.908 0.722,-1.654 1.629,-1.692c7.643,-0.328 8.717,-5.741 8.837,-12.592c0.016,-0.954 -0.751,-1.743 -1.705,-1.743l-11.979,0c-0.941,0 -1.703,-0.763 -1.703,-1.703l-0,-24.401c-0,-0.941 0.762,-1.703 1.703,-1.703" style="fill:#0b64a1;fill-rule:nonzero;"/><path d="M1130.89,18.087c29.175,-0 57.009,15.353 60.59,45.698c0.326,2.761 -1.772,5.21 -4.552,5.21l-28.716,-0c-2.232,-0 -4.123,-1.616 -4.509,-3.814c-1.782,-10.171 -11.465,-14.796 -20.461,-14.796c-8.984,-0 -17.326,4.492 -17.326,12.407c-0,20.747 78.5,7.272 78.5,58.822c-0,23.955 -23.955,49.623 -60.746,49.623c-28.147,-0 -56.101,-15.172 -59.563,-47.554c-0.28,-2.625 1.785,-4.922 4.423,-5.011l28.967,-0.97c2.407,-0.081 4.391,1.723 4.715,4.109c1.551,11.429 12.424,16.913 22.956,16.913c9.838,-0 20.106,-4.919 20.106,-16.256c0,-20.534 -80.426,-4.064 -80.426,-58.179c0,-23.101 19.252,-46.202 56.042,-46.202" style="fill:#0b64a1;fill-rule:nonzero;"/><path d="M308.235,209.994l40.659,0c3.3,0 5.976,2.676 5.976,5.976l-0,65.504c-0,3.3 2.676,5.976 5.976,5.976l47.966,0c3.301,0 5.976,-2.676 5.976,-5.976l-0,-65.504c-0,-3.3 2.676,-5.976 5.976,-5.976l40.659,0c3.301,0 5.976,2.676 5.976,5.976l-0,192.646c-0,3.3 -2.675,5.976 -5.976,5.976l-40.659,0c-3.3,0 -5.976,-2.676 -5.976,-5.976l-0,-65.502c-0,-3.301 -2.675,-5.976 -5.976,-5.976l-47.966,0c-3.3,0 -5.976,2.675 -5.976,5.976l-0,65.502c-0,3.3 -2.676,5.976 -5.976,5.976l-40.659,0c-3.3,0 -5.976,-2.676 -5.976,-5.976l-0,-192.646c-0,-3.3 2.676,-5.976 5.976,-5.976" style="fill:#0b64a1;fill-rule:nonzero;"/><path d="M580.221,262.605c-49.102,0 -49.102,100.546 0,100.546c49.104,0 49.104,-100.546 0,-100.546m0,-55.534c123.051,0 123.051,211.612 0,211.612c-123.051,0 -123.051,-211.612 0,-211.612" style="fill:#0b64a1;fill-rule:nonzero;"/><path d="M691.88,209.994l43.251,0c2.584,0 4.68,2.095 4.68,4.68l-0,114.864c-0,24.844 14.906,37.12 29.812,37.12c14.907,0 30.104,-12.569 30.104,-37.12l-0,-114.864c-0,-2.585 2.096,-4.68 4.681,-4.68l43.25,0c2.585,0 4.68,2.095 4.68,4.68l-0,112.234c-0,59.918 -40.919,89.73 -81.838,89.73c-41.504,0 -83.3,-30.398 -83.3,-89.73l-0,-112.234c-0,-2.585 2.095,-4.68 4.68,-4.68" style="fill:#0b64a1;fill-rule:nonzero;"/><path d="M944.996,207.365c37.271,-0 72.937,18.336 81.427,54.6c1.789,7.641 -4.02,14.963 -11.868,14.963l-27.93,-0c-5.226,-0 -9.646,-3.513 -11.267,-8.482c-3.789,-11.621 -15.862,-16.946 -27.146,-16.946c-12.276,-0 -23.675,6.137 -23.675,16.952c0,28.352 107.268,9.937 107.268,80.377c0,32.736 -32.737,67.81 -83.009,67.81c-36.257,-0 -72.278,-18.422 -80.252,-57.6c-1.49,-7.322 4.093,-14.199 11.561,-14.449l27.951,-0.938c5.634,-0.189 10.619,3.529 12.142,8.956c3.713,13.234 17.378,19.604 30.644,19.604c13.446,-0 27.475,-6.723 27.475,-22.213c0,-28.059 -109.898,-5.553 -109.898,-79.502c0,-31.566 26.305,-63.132 76.577,-63.132" style="fill:#0b64a1;fill-rule:nonzero;"/><path d="M1057.76,209.994l125.21,0c3.035,0 5.496,2.461 5.496,5.496l-0,38.696c-0,3.035 -2.461,5.496 -5.496,5.496l-72.599,0c-3.036,0 -5.496,2.461 -5.496,5.496l-0,16.776c-0,3.035 2.46,5.496 5.496,5.496l42.494,0c3.035,0 5.496,2.461 5.496,5.496l-0,38.696c-0,3.035 -2.461,5.496 -5.496,5.496l-42.494,0c-3.036,0 -5.496,2.461 -5.496,5.496l-0,16.774c-0,3.035 2.46,5.496 5.496,5.496l72.599,0c3.035,0 5.496,2.461 5.496,5.496l-0,38.696c-0,3.035 -2.461,5.496 -5.496,5.496l-125.21,0c-3.036,0 -5.496,-2.461 -5.496,-5.496l-0,-193.606c-0,-3.035 2.46,-5.496 5.496,-5.496" style="fill:#0b64a1;fill-rule:nonzero;"/><path d="M169.652,280.124c-1.866,-5.101 -3.732,-8.211 -7.216,-12.441c-6.668,-8.097 -13.008,-12.055 -23.64,-11.705c-8.832,0.29 -19.313,7.139 -23.808,14.628c-5.737,9.558 -10.269,23.583 -11.086,34.587c-1.533,20.643 -2.015,59.152 -2.138,79.898c-0.03,4.981 0.012,9.885 -0.245,14.865c-0.357,6.916 0.433,10.237 -5.428,14.875c-4.318,3.418 -8.664,2.612 -13.722,2.949c-4.573,0.306 -38.519,0.413 -42.628,0.212c-4.281,-0.208 -9.119,0.602 -9.319,-7.415c-0.066,-2.643 1.034,-8.796 1.431,-11.777c0.401,-3.007 1.504,-11.694 1.65,-13.695c0.275,-3.749 2.31,-17.819 1.659,-39.914c-0.298,-10.128 -0.215,-20.379 -0.688,-30.476c-0.118,-2.517 -0.385,-5.739 -0.747,-8.225c-0.062,-0.428 -0.191,-0.855 -0.249,-1.284c-1.921,-0.755 -3.516,0.028 -5.132,1.04c-2.862,1.79 -5.06,4.715 -8.125,6.513c-2.344,1.375 -6.462,3.577 -8.878,1.478c-0.818,-0.71 -4.563,-5.126 -5.076,-6.02c-1.56,-2.719 -0.218,-6.077 1.634,-8.25c0.807,-0.947 1.957,-1.717 2.842,-2.588c5.393,-5.302 10.887,-10.836 16.752,-15.593c6.871,-5.574 13.461,-11.336 20.187,-17.116c1.484,-1.276 3.107,-2.398 4.61,-3.653c0.006,-1.505 0.302,-3.142 0.361,-4.596c0.403,-9.976 -0.678,-20.607 -0.02,-30.477c0.238,-3.57 2.061,-7.572 5.363,-9.274c0.952,-0.492 1.892,-0.613 2.818,-0.958c0,0 3.651,-0.82 5.299,-1.025c1.648,-0.206 2.901,-0.257 3.882,-0.182c3.957,0.304 9.255,0.752 12.721,2.625c3.138,1.695 2.066,5.675 2.273,8.587c0.18,2.531 0.753,5.135 0.945,7.674c2.855,-2.806 6.131,-5.109 9.209,-7.669c4.029,-3.35 7.974,-6.828 12.164,-10.029c6.47,-4.941 13.637,-10.611 21.36,-13.345c1.925,-0.682 2.058,-0.238 3.655,-0.338c1.259,-0.079 1.962,-0.63 3.752,-0.463c2.707,0.253 4.64,0.439 7.221,1.514c10.364,4.315 24.069,13.846 33.371,20.458c18.872,13.415 36.647,30.675 53.514,46.588c12.422,11.719 27.524,24.473 38.01,37.777c1.949,2.473 2.322,2.604 0.992,5.704c-0.998,2.326 -2.863,4.297 -5.02,5.604c-1.855,1.123 -3.067,0.997 -5.139,0.455c-5.131,-1.34 -8.595,-7.708 -13.87,-8.33c-2.797,-0.33 -3.6,2.884 -3.87,5.063c-1.955,15.742 -0.847,32.006 1.179,47.687c0.431,3.334 0.98,7.055 1.715,10.325c0.369,1.638 1.122,5.922 1.563,9.447c0.487,3.896 1.303,7.639 3.055,15.443c1.752,7.803 3.466,16.887 -1.152,17.046c-4.618,0.16 -6.551,0.163 -10.989,0.163c-4.437,-0.001 -39.554,-0.444 -46.797,-0.13c-1.803,0.079 -4.738,0.369 -6.384,0.246c-3.081,-0.23 -3.453,-2.755 -3.647,-5.322c-0.486,-6.42 -0.504,-13.161 -0.7,-19.604c-0.156,-5.151 -0.09,-10.388 -0.245,-15.573c-0.56,-18.769 -2.705,-55.024 -4.396,-73.771c-0.354,-3.925 -0.603,-5.667 -1.225,-9.648c-0.49,-3.134 -1.849,-7.758 -3.608,-12.565" style="fill:#f18d2d;fill-rule:nonzero;"/><path d="M120.638,330.922c-4.531,0.769 -2.811,7.889 1.359,7.99c2.865,0.07 3.931,-2.323 3.66,-4.861c-0.288,-2.723 -2.548,-3.549 -5.019,-3.129m10.041,-28.03c-0.8,0.063 -1.708,0.392 -2.513,0.458c-3.007,0.246 -6.992,-0.659 -8.56,2.522c-1.321,2.678 -0.784,5.405 -0.75,8.146c0.025,2.042 -0.353,6.214 0.461,7.917c0.376,0.787 1.049,0.821 1.812,0.89c2.727,0.251 12.711,0.307 14.97,-0.46c0.325,-0.11 0.64,-0.203 0.833,-0.518c0.742,-1.113 0.637,-6.775 0.573,-8.37c-0.089,-2.199 -0.425,-7.109 -1.228,-9.043c-0.913,-2.201 -3.665,-1.694 -5.597,-1.542m29.975,0.274c-1.779,-1.625 -9.182,-0.345 -11.677,-0.084c-2.754,0.287 -5.043,-0.66 -5.951,2.698c-0.836,3.095 -0.528,11.36 -0.135,14.742c0.273,2.356 1.716,1.598 3.383,1.751c2.606,0.24 4.029,0.035 6.476,-0.012c1.886,-0.036 7.508,0.489 8.654,-0.806c0.703,-0.796 0.335,-2.579 0.413,-3.64c0.249,-3.383 1.188,-9.181 0.127,-12.292c-0.162,-0.475 -0.973,-2.067 -1.291,-2.357m-15.653,-29.476c-1.28,0.04 -2.324,0.532 -2.38,1.954c0.201,5.309 -0.629,10.657 -0.276,15.964c0.061,0.914 0.414,3.623 0.851,4.285c1.45,2.201 8.058,0.905 10.379,0.705c2.199,-0.19 7.256,0.516 7.171,-3.096c-0.047,-2.019 -1.518,-6.781 -2.494,-8.611c-1.704,-3.198 -9.513,-11.317 -13.251,-11.201m-10.552,-0.283c-1.436,0.139 -5.118,2.467 -6.275,3.466c-4.288,3.7 -8.279,12.865 -7.706,18.505c0.153,1.506 0.829,2.858 2.558,2.851c1.967,-0.008 3.962,-0.415 5.954,-0.55c2.136,-0.145 6.912,0.654 7.825,-1.906l0.665,-19.289c-0.268,-1.565 -1.184,-3.254 -3.02,-3.077m34.385,27.953c1.582,19.255 1.692,54.974 2.342,74.474c0.273,8.178 0.619,16.849 0.397,24.667c-0.11,3.86 0.059,13.897 -3.848,15.984c-3.669,1.959 -13.476,1.005 -17.563,0.885c-5.894,-0.173 -11.608,-0.38 -17.471,-0.216c-3.624,0.102 -7.273,0.377 -10.86,0.473c-3.148,0.083 -11.038,0.309 -11.889,-3.731c-1.098,-5.213 -1.273,-11.135 -1.443,-16.972c-0.115,-23.064 0.924,-63.224 1.634,-86.253c0.493,-16.006 3.554,-34.636 17.87,-44.221c5.612,-3.757 17.097,-4.006 22.015,-1.012c5.827,3.547 11.114,7.77 14.948,17.05c1.45,3.22 3.487,14.237 3.867,18.872" style="fill:#0b64a1;fill-rule:nonzero;"/></g></svg>